<mxfile host="app.diagrams.net" agent="Mozilla/5.0 (Macintosh; Intel Mac OS X 10_15_7) AppleWebKit/605.1.15 (KHTML, like Gecko) Version/18.0 Safari/605.1.15" version="24.7.16">
  <diagram name="Page-1" id="yH37s_dbEKElnpGZkM8X">
    <mxGraphModel dx="1085" dy="884" grid="1" gridSize="10" guides="1" tooltips="1" connect="1" arrows="1" fold="1" page="1" pageScale="1" pageWidth="827" pageHeight="1169" math="0" shadow="0">
      <root>
        <mxCell id="0" />
        <mxCell id="1" parent="0" />
        <mxCell id="AOmEQFrza_Vivdpul7TQ-51" style="edgeStyle=orthogonalEdgeStyle;rounded=0;orthogonalLoop=1;jettySize=auto;html=1;exitX=0.75;exitY=0;exitDx=0;exitDy=0;exitPerimeter=0;startArrow=classic;startFill=1;" edge="1" parent="1" source="AOmEQFrza_Vivdpul7TQ-36" target="AOmEQFrza_Vivdpul7TQ-72">
          <mxGeometry relative="1" as="geometry">
            <mxPoint x="680" y="210" as="targetPoint" />
            <Array as="points">
              <mxPoint x="459" y="210" />
            </Array>
          </mxGeometry>
        </mxCell>
        <mxCell id="AOmEQFrza_Vivdpul7TQ-57" value="Listens for&amp;nbsp;&lt;div&gt;new events&lt;/div&gt;" style="edgeLabel;html=1;align=center;verticalAlign=middle;resizable=0;points=[];" vertex="1" connectable="0" parent="AOmEQFrza_Vivdpul7TQ-51">
          <mxGeometry x="-0.5308" y="1" relative="1" as="geometry">
            <mxPoint x="3" y="-18" as="offset" />
          </mxGeometry>
        </mxCell>
        <mxCell id="AOmEQFrza_Vivdpul7TQ-49" value="Stores&amp;nbsp;&lt;div&gt;data in&lt;/div&gt;" style="edgeStyle=orthogonalEdgeStyle;rounded=0;orthogonalLoop=1;jettySize=auto;html=1;exitX=0.5;exitY=1;exitDx=0;exitDy=0;exitPerimeter=0;" edge="1" parent="1" source="AOmEQFrza_Vivdpul7TQ-72" target="AOmEQFrza_Vivdpul7TQ-38">
          <mxGeometry relative="1" as="geometry">
            <mxPoint x="720" y="248" as="sourcePoint" />
          </mxGeometry>
        </mxCell>
        <mxCell id="AOmEQFrza_Vivdpul7TQ-50" style="edgeStyle=orthogonalEdgeStyle;rounded=0;orthogonalLoop=1;jettySize=auto;html=1;exitX=0;exitY=0.25;exitDx=0;exitDy=0;exitPerimeter=0;entryX=0.25;entryY=0;entryDx=0;entryDy=0;entryPerimeter=0;" edge="1" parent="1" source="AOmEQFrza_Vivdpul7TQ-72" target="AOmEQFrza_Vivdpul7TQ-36">
          <mxGeometry relative="1" as="geometry">
            <mxPoint x="690.0049999999999" y="186.44000000000005" as="sourcePoint" />
          </mxGeometry>
        </mxCell>
        <mxCell id="AOmEQFrza_Vivdpul7TQ-56" value="Publishes&amp;nbsp;&lt;div&gt;events on&lt;/div&gt;" style="edgeLabel;html=1;align=center;verticalAlign=middle;resizable=0;points=[];" vertex="1" connectable="0" parent="AOmEQFrza_Vivdpul7TQ-50">
          <mxGeometry x="-0.33" y="5" relative="1" as="geometry">
            <mxPoint x="-101" y="149" as="offset" />
          </mxGeometry>
        </mxCell>
        <mxCell id="AOmEQFrza_Vivdpul7TQ-38" value="" style="sketch=0;points=[[0,0,0],[0.25,0,0],[0.5,0,0],[0.75,0,0],[1,0,0],[0,1,0],[0.25,1,0],[0.5,1,0],[0.75,1,0],[1,1,0],[0,0.25,0],[0,0.5,0],[0,0.75,0],[1,0.25,0],[1,0.5,0],[1,0.75,0]];outlineConnect=0;fontColor=#232F3E;fillColor=#C925D1;strokeColor=#ffffff;dashed=0;verticalLabelPosition=bottom;verticalAlign=top;align=center;html=1;fontSize=12;fontStyle=0;aspect=fixed;shape=mxgraph.aws4.resourceIcon;resIcon=mxgraph.aws4.dynamodb;" vertex="1" parent="1">
          <mxGeometry x="675.5" y="352" width="78" height="78" as="geometry" />
        </mxCell>
        <mxCell id="AOmEQFrza_Vivdpul7TQ-47" style="edgeStyle=orthogonalEdgeStyle;rounded=0;orthogonalLoop=1;jettySize=auto;html=1;" edge="1" parent="1" source="AOmEQFrza_Vivdpul7TQ-39">
          <mxGeometry relative="1" as="geometry">
            <mxPoint x="410" y="500" as="targetPoint" />
          </mxGeometry>
        </mxCell>
        <mxCell id="AOmEQFrza_Vivdpul7TQ-61" value="Publishes&amp;nbsp;&lt;div&gt;events on&lt;/div&gt;" style="edgeLabel;html=1;align=center;verticalAlign=middle;resizable=0;points=[];" vertex="1" connectable="0" parent="AOmEQFrza_Vivdpul7TQ-47">
          <mxGeometry x="-0.08" y="-2" relative="1" as="geometry">
            <mxPoint as="offset" />
          </mxGeometry>
        </mxCell>
        <mxCell id="AOmEQFrza_Vivdpul7TQ-46" style="edgeStyle=orthogonalEdgeStyle;rounded=0;orthogonalLoop=1;jettySize=auto;html=1;entryX=0.5;entryY=1;entryDx=0;entryDy=0;entryPerimeter=0;" edge="1" parent="1" source="AOmEQFrza_Vivdpul7TQ-63" target="AOmEQFrza_Vivdpul7TQ-39">
          <mxGeometry relative="1" as="geometry">
            <Array as="points">
              <mxPoint x="239" y="610" />
            </Array>
          </mxGeometry>
        </mxCell>
        <mxCell id="AOmEQFrza_Vivdpul7TQ-62" value="Sends&amp;nbsp;&lt;div&gt;data to&lt;/div&gt;" style="edgeLabel;html=1;align=center;verticalAlign=middle;resizable=0;points=[];" vertex="1" connectable="0" parent="AOmEQFrza_Vivdpul7TQ-46">
          <mxGeometry x="-0.2111" y="-2" relative="1" as="geometry">
            <mxPoint as="offset" />
          </mxGeometry>
        </mxCell>
        <mxCell id="AOmEQFrza_Vivdpul7TQ-45" style="edgeStyle=orthogonalEdgeStyle;rounded=0;orthogonalLoop=1;jettySize=auto;html=1;exitX=0.5;exitY=1;exitDx=0;exitDy=0;exitPerimeter=0;entryX=0.5;entryY=0;entryDx=0;entryDy=0;entryPerimeter=0;" edge="1" parent="1" source="AOmEQFrza_Vivdpul7TQ-59" target="AOmEQFrza_Vivdpul7TQ-63">
          <mxGeometry relative="1" as="geometry">
            <mxPoint x="-90" y="740" as="sourcePoint" />
            <mxPoint x="107" y="550" as="targetPoint" />
            <Array as="points">
              <mxPoint x="239" y="460" />
              <mxPoint x="107" y="460" />
            </Array>
          </mxGeometry>
        </mxCell>
        <mxCell id="AOmEQFrza_Vivdpul7TQ-58" value="Stores&amp;nbsp;&lt;div&gt;data in&lt;/div&gt;" style="edgeLabel;html=1;align=center;verticalAlign=middle;resizable=0;points=[];" vertex="1" connectable="0" parent="AOmEQFrza_Vivdpul7TQ-45">
          <mxGeometry x="0.1189" y="1" relative="1" as="geometry">
            <mxPoint as="offset" />
          </mxGeometry>
        </mxCell>
        <mxCell id="AOmEQFrza_Vivdpul7TQ-52" style="edgeStyle=orthogonalEdgeStyle;rounded=0;orthogonalLoop=1;jettySize=auto;html=1;entryX=1;entryY=0.5;entryDx=0;entryDy=0;entryPerimeter=0;exitX=1;exitY=0.5;exitDx=0;exitDy=0;exitPerimeter=0;" edge="1" parent="1" source="AOmEQFrza_Vivdpul7TQ-72" target="AOmEQFrza_Vivdpul7TQ-43">
          <mxGeometry relative="1" as="geometry">
            <mxPoint x="749.0000000000002" y="212" as="sourcePoint" />
            <Array as="points">
              <mxPoint x="754" y="212" />
              <mxPoint x="790" y="212" />
              <mxPoint x="790" y="589" />
              <mxPoint x="556" y="589" />
            </Array>
          </mxGeometry>
        </mxCell>
        <mxCell id="AOmEQFrza_Vivdpul7TQ-54" value="Sourcing of&amp;nbsp;&lt;div&gt;historical events&lt;/div&gt;" style="edgeLabel;html=1;align=center;verticalAlign=middle;resizable=0;points=[];" vertex="1" connectable="0" parent="AOmEQFrza_Vivdpul7TQ-52">
          <mxGeometry x="-0.206" y="-4" relative="1" as="geometry">
            <mxPoint x="-136" y="148" as="offset" />
          </mxGeometry>
        </mxCell>
        <mxCell id="AOmEQFrza_Vivdpul7TQ-53" style="edgeStyle=orthogonalEdgeStyle;rounded=0;orthogonalLoop=1;jettySize=auto;html=1;exitX=0.5;exitY=1;exitDx=0;exitDy=0;exitPerimeter=0;entryX=1;entryY=0.5;entryDx=0;entryDy=0;entryPerimeter=0;" edge="1" parent="1" source="AOmEQFrza_Vivdpul7TQ-38" target="AOmEQFrza_Vivdpul7TQ-36">
          <mxGeometry relative="1" as="geometry">
            <Array as="points">
              <mxPoint x="715" y="458" />
            </Array>
          </mxGeometry>
        </mxCell>
        <mxCell id="AOmEQFrza_Vivdpul7TQ-55" value="Publishes&amp;nbsp;&lt;div&gt;events on&lt;/div&gt;" style="edgeLabel;html=1;align=center;verticalAlign=middle;resizable=0;points=[];" vertex="1" connectable="0" parent="AOmEQFrza_Vivdpul7TQ-53">
          <mxGeometry x="0.2439" y="4" relative="1" as="geometry">
            <mxPoint x="63" y="-4" as="offset" />
          </mxGeometry>
        </mxCell>
        <mxCell id="AOmEQFrza_Vivdpul7TQ-63" value="Simple Storage Service" style="sketch=0;points=[[0,0,0],[0.25,0,0],[0.5,0,0],[0.75,0,0],[1,0,0],[0,1,0],[0.25,1,0],[0.5,1,0],[0.75,1,0],[1,1,0],[0,0.25,0],[0,0.5,0],[0,0.75,0],[1,0.25,0],[1,0.5,0],[1,0.75,0]];outlineConnect=0;fontColor=#232F3E;fillColor=#7AA116;strokeColor=#ffffff;dashed=0;verticalLabelPosition=bottom;verticalAlign=top;align=center;html=1;fontSize=12;fontStyle=0;aspect=fixed;shape=mxgraph.aws4.resourceIcon;resIcon=mxgraph.aws4.s3;" vertex="1" parent="1">
          <mxGeometry x="68.03999999999999" y="546" width="78" height="78" as="geometry" />
        </mxCell>
        <mxCell id="AOmEQFrza_Vivdpul7TQ-64" value="Someone&#39;s web app" style="swimlane;whiteSpace=wrap;html=1;dashed=1;" vertex="1" parent="1">
          <mxGeometry x="20" y="120" width="300" height="550" as="geometry" />
        </mxCell>
        <mxCell id="AOmEQFrza_Vivdpul7TQ-42" value="Web APP front-end UI&amp;nbsp;&lt;div&gt;(JS, Typescript)&lt;/div&gt;" style="outlineConnect=0;dashed=0;verticalLabelPosition=middle;verticalAlign=middle;align=left;html=1;shape=mxgraph.aws3.android;fillColor=#205E00;gradientColor=none;labelPosition=right;" vertex="1" parent="AOmEQFrza_Vivdpul7TQ-64">
          <mxGeometry x="50.58" y="70" width="73.5" height="84" as="geometry" />
        </mxCell>
        <mxCell id="AOmEQFrza_Vivdpul7TQ-39" value="Simple Notification Service" style="sketch=0;points=[[0,0,0],[0.25,0,0],[0.5,0,0],[0.75,0,0],[1,0,0],[0,1,0],[0.25,1,0],[0.5,1,0],[0.75,1,0],[1,1,0],[0,0.25,0],[0,0.5,0],[0,0.75,0],[1,0.25,0],[1,0.5,0],[1,0.75,0]];outlineConnect=0;fontColor=#232F3E;fillColor=#E7157B;strokeColor=#ffffff;dashed=0;verticalLabelPosition=top;verticalAlign=bottom;align=center;html=1;fontSize=12;fontStyle=0;aspect=fixed;shape=mxgraph.aws4.resourceIcon;resIcon=mxgraph.aws4.sns;labelPosition=center;" vertex="1" parent="AOmEQFrza_Vivdpul7TQ-64">
          <mxGeometry x="180" y="387" width="78" height="78" as="geometry" />
        </mxCell>
        <mxCell id="AOmEQFrza_Vivdpul7TQ-70" value="Rest API" style="sketch=0;points=[[0,0,0],[0.25,0,0],[0.5,0,0],[0.75,0,0],[1,0,0],[0,1,0],[0.25,1,0],[0.5,1,0],[0.75,1,0],[1,1,0],[0,0.25,0],[0,0.5,0],[0,0.75,0],[1,0.25,0],[1,0.5,0],[1,0.75,0]];outlineConnect=0;fontColor=#232F3E;fillColor=#E7157B;strokeColor=#ffffff;dashed=0;verticalLabelPosition=bottom;verticalAlign=top;align=center;html=1;fontSize=12;fontStyle=0;aspect=fixed;shape=mxgraph.aws4.resourceIcon;resIcon=mxgraph.aws4.api_gateway;" vertex="1" parent="AOmEQFrza_Vivdpul7TQ-64">
          <mxGeometry x="48.33000000000001" y="216" width="78" height="78" as="geometry" />
        </mxCell>
        <mxCell id="AOmEQFrza_Vivdpul7TQ-44" value="Sends data to" style="edgeStyle=orthogonalEdgeStyle;rounded=0;orthogonalLoop=1;jettySize=auto;html=1;" edge="1" parent="AOmEQFrza_Vivdpul7TQ-64" source="AOmEQFrza_Vivdpul7TQ-42" target="AOmEQFrza_Vivdpul7TQ-70">
          <mxGeometry relative="1" as="geometry">
            <mxPoint x="87.03999999999996" y="220" as="targetPoint" />
          </mxGeometry>
        </mxCell>
        <mxCell id="AOmEQFrza_Vivdpul7TQ-59" value="Simple Queue Service" style="sketch=0;points=[[0,0,0],[0.25,0,0],[0.5,0,0],[0.75,0,0],[1,0,0],[0,1,0],[0.25,1,0],[0.5,1,0],[0.75,1,0],[1,1,0],[0,0.25,0],[0,0.5,0],[0,0.75,0],[1,0.25,0],[1,0.5,0],[1,0.75,0]];outlineConnect=0;fontColor=#232F3E;fillColor=#E7157B;strokeColor=#ffffff;dashed=0;verticalLabelPosition=top;verticalAlign=bottom;align=center;html=1;fontSize=12;fontStyle=0;aspect=fixed;shape=mxgraph.aws4.resourceIcon;resIcon=mxgraph.aws4.sqs;labelPosition=center;" vertex="1" parent="AOmEQFrza_Vivdpul7TQ-64">
          <mxGeometry x="190" y="216" width="78" height="78" as="geometry" />
        </mxCell>
        <mxCell id="AOmEQFrza_Vivdpul7TQ-60" style="edgeStyle=orthogonalEdgeStyle;rounded=0;orthogonalLoop=1;jettySize=auto;html=1;" edge="1" parent="AOmEQFrza_Vivdpul7TQ-64" source="AOmEQFrza_Vivdpul7TQ-70" target="AOmEQFrza_Vivdpul7TQ-59">
          <mxGeometry relative="1" as="geometry">
            <mxPoint x="140" y="180" as="sourcePoint" />
            <Array as="points" />
          </mxGeometry>
        </mxCell>
        <mxCell id="AOmEQFrza_Vivdpul7TQ-71" value="Sends&amp;nbsp;&lt;div&gt;data to&lt;/div&gt;" style="edgeLabel;html=1;align=center;verticalAlign=middle;resizable=0;points=[];" vertex="1" connectable="0" parent="AOmEQFrza_Vivdpul7TQ-60">
          <mxGeometry x="-0.4388" y="1" relative="1" as="geometry">
            <mxPoint x="10" y="-2" as="offset" />
          </mxGeometry>
        </mxCell>
        <mxCell id="AOmEQFrza_Vivdpul7TQ-65" value="Someone&#39;s micro service" style="swimlane;whiteSpace=wrap;html=1;dashed=1;" vertex="1" parent="1">
          <mxGeometry x="600" y="120" width="220" height="550" as="geometry" />
        </mxCell>
        <mxCell id="AOmEQFrza_Vivdpul7TQ-72" value="Lambda Service" style="sketch=0;points=[[0,0,0],[0.25,0,0],[0.5,0,0],[0.75,0,0],[1,0,0],[0,1,0],[0.25,1,0],[0.5,1,0],[0.75,1,0],[1,1,0],[0,0.25,0],[0,0.5,0],[0,0.75,0],[1,0.25,0],[1,0.5,0],[1,0.75,0]];outlineConnect=0;fontColor=#232F3E;fillColor=#ED7100;strokeColor=#ffffff;dashed=0;verticalLabelPosition=top;verticalAlign=bottom;align=center;html=1;fontSize=12;fontStyle=0;aspect=fixed;shape=mxgraph.aws4.resourceIcon;resIcon=mxgraph.aws4.lambda;labelPosition=center;" vertex="1" parent="AOmEQFrza_Vivdpul7TQ-65">
          <mxGeometry x="75.5" y="50" width="78" height="78" as="geometry" />
        </mxCell>
        <mxCell id="AOmEQFrza_Vivdpul7TQ-36" value="Event Bridge" style="sketch=0;points=[[0,0,0],[0.25,0,0],[0.5,0,0],[0.75,0,0],[1,0,0],[0,1,0],[0.25,1,0],[0.5,1,0],[0.75,1,0],[1,1,0],[0,0.25,0],[0,0.5,0],[0,0.75,0],[1,0.25,0],[1,0.5,0],[1,0.75,0]];outlineConnect=0;fontColor=#232F3E;fillColor=#E7157B;strokeColor=#ffffff;dashed=0;verticalLabelPosition=top;verticalAlign=bottom;align=left;html=1;fontSize=12;fontStyle=0;aspect=fixed;shape=mxgraph.aws4.resourceIcon;resIcon=mxgraph.aws4.eventbridge;labelPosition=right;" vertex="1" parent="1">
          <mxGeometry x="400" y="419" width="78" height="78" as="geometry" />
        </mxCell>
        <mxCell id="AOmEQFrza_Vivdpul7TQ-66" value="Domain Event Hub" style="swimlane;whiteSpace=wrap;html=1;dashed=1;" vertex="1" parent="1">
          <mxGeometry x="360" y="120" width="220" height="550" as="geometry">
            <mxRectangle width="140" height="30" as="alternateBounds" />
          </mxGeometry>
        </mxCell>
        <mxCell id="AOmEQFrza_Vivdpul7TQ-43" value="Dynamo DB" style="sketch=0;points=[[0,0,0],[0.25,0,0],[0.5,0,0],[0.75,0,0],[1,0,0],[0,1,0],[0.25,1,0],[0.5,1,0],[0.75,1,0],[1,1,0],[0,0.25,0],[0,0.5,0],[0,0.75,0],[1,0.25,0],[1,0.5,0],[1,0.75,0]];outlineConnect=0;fontColor=#232F3E;fillColor=#C925D1;strokeColor=#ffffff;dashed=0;verticalLabelPosition=bottom;verticalAlign=top;align=center;html=1;fontSize=12;fontStyle=0;aspect=fixed;shape=mxgraph.aws4.resourceIcon;resIcon=mxgraph.aws4.dynamodb;" vertex="1" parent="AOmEQFrza_Vivdpul7TQ-66">
          <mxGeometry x="118" y="426" width="78" height="78" as="geometry" />
        </mxCell>
        <mxCell id="AOmEQFrza_Vivdpul7TQ-48" style="edgeStyle=orthogonalEdgeStyle;rounded=0;orthogonalLoop=1;jettySize=auto;html=1;entryX=0;entryY=0.5;entryDx=0;entryDy=0;entryPerimeter=0;" edge="1" parent="1" source="AOmEQFrza_Vivdpul7TQ-36" target="AOmEQFrza_Vivdpul7TQ-43">
          <mxGeometry relative="1" as="geometry" />
        </mxCell>
        <mxCell id="AOmEQFrza_Vivdpul7TQ-69" value="Stores&amp;nbsp;&lt;div&gt;data in&lt;/div&gt;" style="edgeLabel;html=1;align=center;verticalAlign=middle;resizable=0;points=[];" vertex="1" connectable="0" parent="AOmEQFrza_Vivdpul7TQ-48">
          <mxGeometry x="-0.3805" y="4" relative="1" as="geometry">
            <mxPoint as="offset" />
          </mxGeometry>
        </mxCell>
      </root>
    </mxGraphModel>
  </diagram>
</mxfile>
